<svg xmlns="http://www.w3.org/2000/svg" viewBox="0 0 500 500" role="img" aria-label="Ariadne">
	<defs>
		<linearGradient id="thread" x1="64" y1="338" x2="438" y2="154" gradientUnits="userSpaceOnUse">
			<stop offset="0" stop-color="#9f7117" />
			<stop offset="0.46" stop-color="#d8a532" />
			<stop offset="1" stop-color="#f3d37a" />
		</linearGradient>
	</defs>
	<rect width="500" height="500" rx="112" fill="none" />
	<path
		d="M66 307 C119 209 235 166 330 205 C405 236 428 311 384 365 C334 426 223 408 178 338 C141 280 178 217 244 214 C303 211 348 254 338 301 C329 345 262 356 236 318 C214 287 231 254 266 254 C294 254 314 276 308 299"
		fill="none"
		stroke="url(#thread)"
		stroke-width="24"
		stroke-linecap="round"
		stroke-linejoin="round"
	/>
	<path
		d="M72 303 C125 219 234 178 321 215 C386 243 407 306 370 353 C328 405 230 391 192 329 C164 284 194 235 248 232 C294 230 329 261 322 297"
		fill="none"
		stroke="#ffe6a6"
		stroke-width="5"
		stroke-linecap="round"
		stroke-linejoin="round"
		opacity="0.72"
	/>
</svg>
